<?xml version="1.0" encoding="utf-8"?>
<!-- Generator: Adobe Illustrator 25.2.0, SVG Export Plug-In . SVG Version: 6.00 Build 0)  -->
<svg version="1.1" id="Layer_1" xmlns="http://www.w3.org/2000/svg" xmlns:xlink="http://www.w3.org/1999/xlink" x="0px" y="0px"
	 viewBox="0 0 500 500" style="enable-background:new 0 0 500 500;" xml:space="preserve">
<style type="text/css">
	.st0{opacity:0.3;}
	.st1{fill:#D61F69;}
	.st2{fill:#1C64F2;}
</style>
<g class="st0">
	<polygon class="st1" points="80.2,88.9 80.2,98.6 88.5,93.7 	"/>
	<polygon class="st1" points="11.2,181.8 11.2,191.4 19.6,186.6 	"/>
	<polygon class="st1" points="225.2,57.1 225.2,66.8 233.6,61.9 	"/>
	<polygon class="st1" points="209.5,216.8 209.5,226.4 217.9,221.6 	"/>
	<polygon class="st1" points="340.4,403.9 340.4,413.6 348.7,408.8 	"/>
	<polygon class="st1" points="285.1,213.3 285.1,223 293.4,218.1 	"/>
	<polygon class="st1" points="382.5,140 382.5,149.7 390.9,144.8 	"/>
	<polygon class="st1" points="332.9,22 332.9,31.6 341.2,26.8 	"/>
	<polygon class="st1" points="473.6,13.4 473.6,23.1 482,18.3 	"/>
	<polygon class="st1" points="11.2,48.4 24.5,56.1 24.5,65.7 11.2,73.3 	"/>
	<polygon class="st1" points="87.9,174.2 101.2,181.8 101.2,191.4 87.9,199 	"/>
	<polygon class="st1" points="185.5,32.2 198.7,39.9 198.7,49.5 185.5,57.1 	"/>
	<polygon class="st1" points="348.3,216.8 361.5,224.4 361.5,234 348.3,241.6 	"/>
	<polygon class="st1" points="277.7,402.7 290.9,410.3 290.9,419.9 277.7,427.5 	"/>
	<polygon class="st1" points="416.8,172.4 430,180 430,189.7 416.8,197.3 	"/>
	<polygon class="st1" points="134.3,134.8 147.6,142.4 147.6,152 134.3,159.6 	"/>
	<polygon class="st1" points="265.7,5.8 278.9,13.5 278.9,23.1 265.7,30.7 	"/>
	<polygon class="st1" points="450.1,44.7 463.4,52.3 463.4,61.9 450.1,69.5 	"/>
	<polygon class="st2" points="39.6,30.8 39.6,40.4 61.2,27.9 61.2,18.3 	"/>
	<polygon class="st2" points="92.3,235.4 92.3,245.1 113.9,232.6 113.9,223 	"/>
	<polygon class="st2" points="145.1,23.4 145.1,33 166.7,20.6 166.7,10.9 	"/>
	<polygon class="st2" points="169.6,190.6 169.6,200.3 191.2,187.8 191.2,178.2 	"/>
	<polygon class="st2" points="303,429.7 303,439.3 324.6,426.9 324.6,417.2 	"/>
	<polygon class="st2" points="330.4,155.6 330.4,165.2 352.1,152.7 352.1,143.1 	"/>
	<polygon class="st2" points="433,155.9 433,165.5 454.6,153.1 454.6,143.4 	"/>
	<polygon class="st2" points="272.3,76.9 272.3,87.3 291,73.8 291,63.4 	"/>
	<polygon class="st2" points="386.7,112 386.7,122.4 405.5,109 405.5,98.6 	"/>
	<polygon class="st1" points="28.3,86.2 63.1,106.3 63.1,121.6 28.3,101.5 	"/>
	<polygon class="st1" points="83.8,134.8 118.6,154.8 118.6,170.2 83.8,150.1 	"/>
	<polygon class="st1" points="192.1,86.2 226.9,106.3 226.9,121.6 192.1,101.5 	"/>
	<polygon class="st1" points="142.7,205.3 177.5,225.4 177.5,240.7 142.7,220.6 	"/>
	<polygon class="st1" points="285.1,134.8 319.9,154.8 319.9,170.2 285.1,150.1 	"/>
	<polygon class="st1" points="378.7,184.8 413.5,204.9 413.5,220.2 378.7,200.1 	"/>
	<polygon class="st1" points="284.3,446.2 319.1,466.2 319.1,481.6 284.3,461.5 	"/>
	<polygon class="st1" points="285.1,30.7 319.9,50.8 319.9,66.1 285.1,46 	"/>
	<polygon class="st1" points="453.5,86.2 488.3,106.3 488.3,121.6 453.5,101.5 	"/>
	<polygon class="st2" points="81.4,63.2 94.5,55.6 73,43.2 116.2,18.3 116.2,58.5 81.4,78.6 	"/>
	<polygon class="st2" points="142.7,105.8 155.9,98.2 134.3,85.7 177.5,60.9 177.5,101 142.7,121.1 	"/>
	<polygon class="st2" points="212,175.9 225.2,168.2 203.6,155.8 246.8,130.9 246.8,171.1 212,191.2 	"/>
	<polygon class="st2" points="303.9,226 317,218.4 295.4,206 338.7,181.1 338.7,221.3 303.9,241.4 	"/>
	<polygon class="st2" points="453.5,233 466.7,225.3 445.1,212.9 488.3,188 488.3,228.2 453.5,248.3 	"/>
	<polygon class="st2" points="48,210.5 61.2,202.9 39.6,190.4 82.8,165.5 82.8,205.7 48,225.8 	"/>
	<polygon class="st2" points="315.9,101 329.1,93.4 307.5,80.9 350.7,56 350.7,96.2 315.9,116.3 	"/>
	<polygon class="st2" points="385.6,54.2 398.8,46.6 377.2,34.1 420.5,9.3 420.5,49.4 385.6,69.5 	"/>
	<g>
		<g>
			<polygon class="st2" points="450.1,466.5 464.6,458.1 440.9,444.4 488.3,417.1 488.3,461.2 450.1,483.3 			"/>
			<polygon class="st2" points="426.5,425.5 426.5,436.1 450.2,422.4 450.2,411.8 			"/>
		</g>
		<g>
			<polygon class="st1" points="450.2,411.8 450.2,422.4 459.4,417.1 			"/>
			<polygon class="st1" points="411.9,444.4 450.1,466.5 450.1,483.3 411.9,461.2 			"/>
			<polygon class="st1" points="411.9,417.1 426.5,425.5 426.5,436.1 411.9,444.4 			"/>
		</g>
	</g>
	<polygon class="st2" points="332.6,465 345.8,457.4 324.2,444.9 367.4,420.1 367.4,460.3 332.6,480.3 	"/>
	<polygon class="st1" points="211.7,403.9 211.7,413.6 220,408.8 	"/>
	<polygon class="st1" points="160.6,390.2 173.8,397.9 173.8,407.5 160.6,415.1 	"/>
	<polygon class="st2" points="174.3,429.7 174.3,439.3 195.9,426.9 195.9,417.2 	"/>
	<polygon class="st1" points="142.7,456.2 177.5,476.3 177.5,491.6 142.7,471.5 	"/>
	<polygon class="st2" points="203.9,465 217.1,457.4 195.5,444.9 238.7,420.1 238.7,460.3 203.9,480.3 	"/>
	<polygon class="st1" points="72.3,428.2 72.3,437.9 80.7,433.1 	"/>
	<polygon class="st1" points="61.2,381.9 74.4,389.6 74.4,399.2 61.2,406.8 	"/>
	<polygon class="st2" points="11.2,432.2 11.2,441.8 32.9,429.4 32.9,419.7 	"/>
	<polygon class="st1" points="11.2,456.2 46,476.3 46,491.6 11.2,471.5 	"/>
	<polygon class="st2" points="84.9,478.7 98,471.1 76.5,458.6 119.7,433.7 119.7,473.9 84.9,494 	"/>
	<polygon class="st1" points="433.6,342 433.6,351.6 441.9,346.8 	"/>
	<polygon class="st1" points="430.6,257.2 443.8,264.9 443.8,274.5 430.6,282.1 	"/>
	<polygon class="st2" points="406,314.7 406,324.3 427.6,311.9 427.6,302.2 	"/>
	<polygon class="st1" points="388,331.5 422.8,351.6 422.8,366.9 388,346.8 	"/>
	<polygon class="st2" points="453.5,320.9 466.7,313.3 445.1,300.8 488.3,275.9 488.3,316.1 453.5,336.2 	"/>
	<polygon class="st1" points="298.8,308.5 298.8,318.1 307.2,313.3 	"/>
	<polygon class="st1" points="271.1,282.1 284.3,289.8 284.3,299.4 271.1,307 	"/>
	<polygon class="st2" points="271.5,342.6 271.5,352.2 293.1,339.8 293.1,330.1 	"/>
	<polygon class="st1" points="307.2,262.1 342.1,282.2 342,297.6 307.2,277.5 	"/>
	<polygon class="st2" points="323.9,353.4 337,345.8 315.4,333.3 358.7,308.5 358.7,348.6 323.9,368.7 	"/>
	<polygon class="st1" points="165.4,281 165.4,290.6 173.8,285.8 	"/>
	<polygon class="st1" points="141.7,260.9 154.9,268.6 154.9,278.2 141.7,285.8 	"/>
	<polygon class="st2" points="206.3,348.2 206.3,357.8 227.9,345.4 227.9,335.7 	"/>
	<polygon class="st1" points="202.6,284.5 237.4,304.6 237.4,319.9 202.6,299.8 	"/>
	<polygon class="st2" points="148.3,351.1 161.5,343.4 139.9,331 183.1,306.1 183.1,346.3 148.3,366.4 	"/>
	<polygon class="st1" points="81.2,283.8 81.2,293.4 89.6,288.6 	"/>
	<polygon class="st1" points="65.7,311.9 78.9,319.5 78.9,329.2 65.7,336.8 	"/>
	<polygon class="st2" points="85.4,348.2 85.4,357.8 107,345.4 107,335.7 	"/>
	<polygon class="st1" points="11.2,329.1 46,349.2 46,364.5 11.2,344.4 	"/>
	<polygon class="st2" points="19.7,306.5 32.8,298.9 11.2,286.4 54.5,261.6 54.5,301.8 19.7,321.8 	"/>
</g>
</svg>
