<?xml version="1.0" encoding="utf-8"?>
<!-- Generator: Adobe Illustrator 25.2.0, SVG Export Plug-In . SVG Version: 6.00 Build 0)  -->
<svg version="1.1" id="Layer_1" xmlns="http://www.w3.org/2000/svg" xmlns:xlink="http://www.w3.org/1999/xlink" x="0px" y="0px"
	 viewBox="0 0 419.5 595.3" style="enable-background:new 0 0 419.5 595.3;" xml:space="preserve">
<style type="text/css">
	.st0{fill:none;}
	.st1{fill:#9B1C1C;}
	.st2{fill:#E02424;}
	.st3{fill:#B43403;}
	.st4{fill:#FF5A1F;}
	.st5{fill:#C27803;}
	.st6{fill:#FACA15;}
	.st7{fill:#057A55;}
	.st8{fill:#31C48D;}
	.st9{fill:#047481;}
	.st10{fill:#16BDCA;}
	.st11{fill:#1E429F;}
	.st12{fill:#1C64F2;}
	.st13{fill:#5521B5;}
	.st14{fill:#7E3AF2;}
	.st15{fill:#99154B;}
	.st16{fill:#D61F69;}
</style>
<g>
	<polygon class="st0" points="9.5,70.5 45,50 38.1,46 20.4,56.3 9.5,50 38.1,33.5 66.7,50 31.2,70.5 48.9,80.7 38.1,87 	"/>
	<g>
		<polygon class="st1" points="38.1,87 48.9,80.7 31.2,70.5 66.7,50 66.7,83.1 38.1,99.6 		"/>
		<polygon class="st1" points="20.4,56.3 20.4,64.2 38.1,54 38.1,46 		"/>
	</g>
	<g>
		<polygon class="st2" points="38.1,46 38.1,54 45,50 		"/>
		<polygon class="st2" points="9.5,70.5 38.1,87 38.1,99.6 9.5,83.1 		"/>
		<polygon class="st2" points="9.5,50 20.4,56.3 20.4,64.2 9.5,70.5 		"/>
	</g>
</g>
<g>
	<polygon class="st0" points="9.5,136.6 45,116.1 38.1,112.1 20.4,122.4 9.5,116.1 38.1,99.6 66.7,116.1 31.2,136.6 48.9,146.8 
		38.1,153.1 	"/>
	<g>
		<polygon class="st3" points="38.1,153.1 48.9,146.8 31.2,136.6 66.7,116.1 66.7,149.1 38.1,165.7 		"/>
		<polygon class="st3" points="20.4,122.4 20.4,130.3 38.1,120.1 38.1,112.1 		"/>
	</g>
	<g>
		<polygon class="st4" points="38.1,112.1 38.1,120.1 45,116.1 		"/>
		<polygon class="st4" points="9.5,136.6 38.1,153.1 38.1,165.7 9.5,149.1 		"/>
		<polygon class="st4" points="9.5,116.1 20.4,122.4 20.4,130.3 9.5,136.6 		"/>
	</g>
</g>
<g>
	<polygon class="st0" points="9.5,202.6 45,182.2 38.1,178.2 20.4,188.5 9.5,182.2 38.1,165.7 66.7,182.2 31.2,202.7 48.9,212.9 
		38.1,219.2 	"/>
	<g>
		<polygon class="st5" points="38.1,219.2 48.9,212.9 31.2,202.7 66.7,182.2 66.7,215.2 38.1,231.7 		"/>
		<polygon class="st5" points="20.4,188.5 20.4,196.4 38.1,186.1 38.1,178.2 		"/>
	</g>
	<g>
		<polygon class="st6" points="38.1,178.2 38.1,186.1 45,182.2 		"/>
		<polygon class="st6" points="9.5,202.6 38.1,219.2 38.1,231.7 9.5,215.2 		"/>
		<polygon class="st6" points="9.5,182.2 20.4,188.5 20.4,196.4 9.5,202.6 		"/>
	</g>
</g>
<g>
	<polygon class="st0" points="9.5,268.7 45,248.3 38.1,244.3 20.4,254.5 9.5,248.3 38.1,231.7 66.7,248.3 31.2,268.7 48.9,279 
		38.1,285.2 	"/>
	<g>
		<polygon class="st7" points="38.1,285.2 48.9,279 31.2,268.7 66.7,248.3 66.7,281.3 38.1,297.8 		"/>
		<polygon class="st7" points="20.4,254.5 20.4,262.5 38.1,252.2 38.1,244.3 		"/>
	</g>
	<g>
		<polygon class="st8" points="38.1,244.3 38.1,252.2 45,248.3 		"/>
		<polygon class="st8" points="9.5,268.7 38.1,285.2 38.1,297.8 9.5,281.3 		"/>
		<polygon class="st8" points="9.5,248.3 20.4,254.5 20.4,262.5 9.5,268.7 		"/>
	</g>
</g>
<g>
	<polygon class="st0" points="9.5,334.8 45,314.3 38.1,310.4 20.4,320.6 9.5,314.4 38.1,297.8 66.7,314.4 31.2,334.8 48.9,345.1 
		38.1,351.3 	"/>
	<g>
		<polygon class="st9" points="38.1,351.3 48.9,345.1 31.2,334.8 66.7,314.4 66.7,347.4 38.1,363.9 		"/>
		<polygon class="st9" points="20.4,320.6 20.4,328.5 38.1,318.3 38.1,310.4 		"/>
	</g>
	<g>
		<polygon class="st10" points="38.1,310.4 38.1,318.3 45,314.3 		"/>
		<polygon class="st10" points="9.5,334.8 38.1,351.3 38.1,363.9 9.5,347.4 		"/>
		<polygon class="st10" points="9.5,314.4 20.4,320.6 20.4,328.5 9.5,334.8 		"/>
	</g>
</g>
<g>
	<polygon class="st0" points="9.5,400.9 45,380.4 38.1,376.5 20.4,386.7 9.5,380.4 38.1,363.9 66.7,380.4 31.2,400.9 48.9,411.1 
		38.1,417.4 	"/>
	<g>
		<polygon class="st11" points="38.1,417.4 48.9,411.1 31.2,400.9 66.7,380.4 66.7,413.5 38.1,430 		"/>
		<polygon class="st11" points="20.4,386.7 20.4,394.6 38.1,384.4 38.1,376.5 		"/>
	</g>
	<g>
		<polygon class="st12" points="38.1,376.5 38.1,384.4 45,380.4 		"/>
		<polygon class="st12" points="9.5,400.9 38.1,417.4 38.1,430 9.5,413.5 		"/>
		<polygon class="st12" points="9.5,380.4 20.4,386.7 20.4,394.6 9.5,400.9 		"/>
	</g>
</g>
<g>
	<polygon class="st0" points="9.5,467 45,446.5 38.1,442.5 20.4,452.8 9.5,446.5 38.1,430 66.7,446.5 31.2,467 48.9,477.2 
		38.1,483.5 	"/>
	<g>
		<polygon class="st13" points="38.1,483.5 48.9,477.2 31.2,467 66.7,446.5 66.7,479.6 38.1,496.1 		"/>
		<polygon class="st13" points="20.4,452.8 20.4,460.7 38.1,450.5 38.1,442.5 		"/>
	</g>
	<g>
		<polygon class="st14" points="38.1,442.5 38.1,450.5 45,446.5 		"/>
		<polygon class="st14" points="9.5,467 38.1,483.5 38.1,496.1 9.5,479.6 		"/>
		<polygon class="st14" points="9.5,446.5 20.4,452.8 20.4,460.7 9.5,467 		"/>
	</g>
</g>
<g>
	<polygon class="st0" points="9.5,533.1 45,512.6 38.1,508.6 20.4,518.9 9.5,512.6 38.1,496.1 66.7,512.6 31.2,533.1 48.9,543.3 
		38.1,549.6 	"/>
	<g>
		<polygon class="st15" points="38.1,549.6 48.9,543.3 31.2,533.1 66.7,512.6 66.7,545.6 38.1,562.2 		"/>
		<polygon class="st15" points="20.4,518.9 20.4,526.8 38.1,516.6 38.1,508.6 		"/>
	</g>
	<g>
		<polygon class="st16" points="38.1,508.6 38.1,516.6 45,512.6 		"/>
		<polygon class="st16" points="9.5,533.1 38.1,549.6 38.1,562.2 9.5,545.6 		"/>
		<polygon class="st16" points="9.5,512.6 20.4,518.9 20.4,526.8 9.5,533.1 		"/>
	</g>
</g>
<g>
	<polygon class="st0" points="66.7,70.5 102.2,50 95.4,46 77.6,56.3 66.7,50 95.3,33.5 123.9,50 88.4,70.5 106.2,80.7 95.3,87 	"/>
	<g>
		<polygon class="st1" points="95.3,87 106.2,80.7 88.4,70.5 123.9,50 123.9,83.1 95.3,99.6 		"/>
		<polygon class="st1" points="77.6,56.3 77.6,64.2 95.4,54 95.4,46 		"/>
	</g>
	<g>
		<polygon class="st2" points="95.4,46 95.4,54 102.2,50 		"/>
		<polygon class="st2" points="66.7,70.5 95.3,87 95.3,99.6 66.7,83.1 		"/>
		<polygon class="st2" points="66.7,50 77.6,56.3 77.6,64.2 66.7,70.5 		"/>
	</g>
</g>
<g>
	<polygon class="st0" points="66.7,136.6 102.2,116.1 95.4,112.1 77.6,122.4 66.7,116.1 95.3,99.6 123.9,116.1 88.4,136.6 
		106.2,146.8 95.3,153.1 	"/>
	<g>
		<polygon class="st3" points="95.3,153.1 106.2,146.8 88.4,136.6 123.9,116.1 123.9,149.1 95.3,165.7 		"/>
		<polygon class="st3" points="77.6,122.4 77.6,130.3 95.4,120.1 95.4,112.1 		"/>
	</g>
	<g>
		<polygon class="st4" points="95.4,112.1 95.4,120.1 102.2,116.1 		"/>
		<polygon class="st4" points="66.7,136.6 95.3,153.1 95.3,165.7 66.7,149.1 		"/>
		<polygon class="st4" points="66.7,116.1 77.6,122.4 77.6,130.3 66.7,136.6 		"/>
	</g>
</g>
<g>
	<polygon class="st0" points="66.7,202.6 102.2,182.2 95.4,178.2 77.6,188.5 66.7,182.2 95.3,165.7 123.9,182.2 88.4,202.7 
		106.2,212.9 95.3,219.2 	"/>
	<g>
		<polygon class="st5" points="95.3,219.2 106.2,212.9 88.4,202.7 123.9,182.2 123.9,215.2 95.3,231.7 		"/>
		<polygon class="st5" points="77.6,188.5 77.6,196.4 95.4,186.1 95.4,178.2 		"/>
	</g>
	<g>
		<polygon class="st6" points="95.4,178.2 95.4,186.1 102.2,182.2 		"/>
		<polygon class="st6" points="66.7,202.6 95.3,219.2 95.3,231.7 66.7,215.2 		"/>
		<polygon class="st6" points="66.7,182.2 77.6,188.5 77.6,196.4 66.7,202.6 		"/>
	</g>
</g>
<g>
	<polygon class="st0" points="66.7,268.7 102.2,248.3 95.4,244.3 77.6,254.5 66.7,248.3 95.3,231.7 123.9,248.3 88.4,268.7 
		106.2,279 95.3,285.2 	"/>
	<g>
		<polygon class="st7" points="95.3,285.2 106.2,279 88.4,268.7 123.9,248.3 123.9,281.3 95.3,297.8 		"/>
		<polygon class="st7" points="77.6,254.5 77.6,262.5 95.4,252.2 95.4,244.3 		"/>
	</g>
	<g>
		<polygon class="st8" points="95.4,244.3 95.4,252.2 102.2,248.3 		"/>
		<polygon class="st8" points="66.7,268.7 95.3,285.2 95.3,297.8 66.7,281.3 		"/>
		<polygon class="st8" points="66.7,248.3 77.6,254.5 77.6,262.5 66.7,268.7 		"/>
	</g>
</g>
<g>
	<polygon class="st0" points="66.7,334.8 102.2,314.3 95.4,310.4 77.6,320.6 66.7,314.4 95.3,297.8 123.9,314.4 88.4,334.8 
		106.2,345.1 95.3,351.3 	"/>
	<g>
		<polygon class="st9" points="95.3,351.3 106.2,345.1 88.4,334.8 123.9,314.4 123.9,347.4 95.3,363.9 		"/>
		<polygon class="st9" points="77.6,320.6 77.6,328.5 95.4,318.3 95.4,310.4 		"/>
	</g>
	<g>
		<polygon class="st10" points="95.4,310.4 95.4,318.3 102.2,314.3 		"/>
		<polygon class="st10" points="66.7,334.8 95.3,351.3 95.3,363.9 66.7,347.4 		"/>
		<polygon class="st10" points="66.7,314.4 77.6,320.6 77.6,328.5 66.7,334.8 		"/>
	</g>
</g>
<g>
	<polygon class="st0" points="66.7,400.9 102.2,380.4 95.4,376.5 77.6,386.7 66.7,380.4 95.3,363.9 123.9,380.4 88.4,400.9 
		106.2,411.1 95.3,417.4 	"/>
	<g>
		<polygon class="st11" points="95.3,417.4 106.2,411.1 88.4,400.9 123.9,380.4 123.9,413.5 95.3,430 		"/>
		<polygon class="st11" points="77.6,386.7 77.6,394.6 95.4,384.4 95.4,376.5 		"/>
	</g>
	<g>
		<polygon class="st12" points="95.4,376.5 95.4,384.4 102.2,380.4 		"/>
		<polygon class="st12" points="66.7,400.9 95.3,417.4 95.3,430 66.7,413.5 		"/>
		<polygon class="st12" points="66.7,380.4 77.6,386.7 77.6,394.6 66.7,400.9 		"/>
	</g>
</g>
<g>
	<polygon class="st0" points="66.7,467 102.2,446.5 95.4,442.5 77.6,452.8 66.7,446.5 95.3,430 123.9,446.5 88.4,467 106.2,477.2 
		95.3,483.5 	"/>
	<g>
		<polygon class="st13" points="95.3,483.5 106.2,477.2 88.4,467 123.9,446.5 123.9,479.6 95.3,496.1 		"/>
		<polygon class="st13" points="77.6,452.8 77.6,460.7 95.4,450.5 95.4,442.5 		"/>
	</g>
	<g>
		<polygon class="st14" points="95.4,442.5 95.4,450.5 102.2,446.5 		"/>
		<polygon class="st14" points="66.7,467 95.3,483.5 95.3,496.1 66.7,479.6 		"/>
		<polygon class="st14" points="66.7,446.5 77.6,452.8 77.6,460.7 66.7,467 		"/>
	</g>
</g>
<g>
	<polygon class="st0" points="66.7,533.1 102.2,512.6 95.4,508.6 77.6,518.9 66.7,512.6 95.3,496.1 123.9,512.6 88.4,533.1 
		106.2,543.3 95.3,549.6 	"/>
	<g>
		<polygon class="st15" points="95.3,549.6 106.2,543.3 88.4,533.1 123.9,512.6 123.9,545.6 95.3,562.2 		"/>
		<polygon class="st15" points="77.6,518.9 77.6,526.8 95.4,516.6 95.4,508.6 		"/>
	</g>
	<g>
		<polygon class="st16" points="95.4,508.6 95.4,516.6 102.2,512.6 		"/>
		<polygon class="st16" points="66.7,533.1 95.3,549.6 95.3,562.2 66.7,545.6 		"/>
		<polygon class="st16" points="66.7,512.6 77.6,518.9 77.6,526.8 66.7,533.1 		"/>
	</g>
</g>
<g>
	<polygon class="st0" points="123.9,70.5 159.5,50 152.6,46 134.8,56.3 123.9,50 152.5,33.5 181.2,50 145.6,70.5 163.4,80.7 
		152.5,87 	"/>
	<g>
		<polygon class="st1" points="152.5,87 163.4,80.7 145.6,70.5 181.2,50 181.2,83.1 152.5,99.6 		"/>
		<polygon class="st1" points="134.8,56.3 134.8,64.2 152.6,54 152.6,46 		"/>
	</g>
	<g>
		<polygon class="st2" points="152.6,46 152.6,54 159.5,50 		"/>
		<polygon class="st2" points="123.9,70.5 152.5,87 152.5,99.6 123.9,83.1 		"/>
		<polygon class="st2" points="123.9,50 134.8,56.3 134.8,64.2 123.9,70.5 		"/>
	</g>
</g>
<g>
	<polygon class="st0" points="123.9,136.6 159.5,116.1 152.6,112.1 134.8,122.4 123.9,116.1 152.5,99.6 181.2,116.1 145.6,136.6 
		163.4,146.8 152.5,153.1 	"/>
	<g>
		<polygon class="st3" points="152.5,153.1 163.4,146.8 145.6,136.6 181.2,116.1 181.2,149.1 152.5,165.7 		"/>
		<polygon class="st3" points="134.8,122.4 134.8,130.3 152.6,120.1 152.6,112.1 		"/>
	</g>
	<g>
		<polygon class="st4" points="152.6,112.1 152.6,120.1 159.5,116.1 		"/>
		<polygon class="st4" points="123.9,136.6 152.5,153.1 152.5,165.7 123.9,149.1 		"/>
		<polygon class="st4" points="123.9,116.1 134.8,122.4 134.8,130.3 123.9,136.6 		"/>
	</g>
</g>
<g>
	<polygon class="st0" points="123.9,202.6 159.5,182.2 152.6,178.2 134.8,188.5 123.9,182.2 152.5,165.7 181.2,182.2 145.6,202.7 
		163.4,212.9 152.5,219.2 	"/>
	<g>
		<polygon class="st5" points="152.5,219.2 163.4,212.9 145.6,202.7 181.2,182.2 181.2,215.2 152.5,231.7 		"/>
		<polygon class="st5" points="134.8,188.5 134.8,196.4 152.6,186.1 152.6,178.2 		"/>
	</g>
	<g>
		<polygon class="st6" points="152.6,178.2 152.6,186.1 159.5,182.2 		"/>
		<polygon class="st6" points="123.9,202.6 152.5,219.2 152.5,231.7 123.9,215.2 		"/>
		<polygon class="st6" points="123.9,182.2 134.8,188.5 134.8,196.4 123.9,202.6 		"/>
	</g>
</g>
<g>
	<polygon class="st0" points="123.9,268.7 159.5,248.3 152.6,244.3 134.8,254.5 123.9,248.3 152.5,231.7 181.2,248.3 145.6,268.7 
		163.4,279 152.5,285.2 	"/>
	<g>
		<polygon class="st7" points="152.5,285.2 163.4,279 145.6,268.7 181.2,248.3 181.2,281.3 152.5,297.8 		"/>
		<polygon class="st7" points="134.8,254.5 134.8,262.5 152.6,252.2 152.6,244.3 		"/>
	</g>
	<g>
		<polygon class="st8" points="152.6,244.3 152.6,252.2 159.5,248.3 		"/>
		<polygon class="st8" points="123.9,268.7 152.5,285.2 152.5,297.8 123.9,281.3 		"/>
		<polygon class="st8" points="123.9,248.3 134.8,254.5 134.8,262.5 123.9,268.7 		"/>
	</g>
</g>
<g>
	<polygon class="st0" points="123.9,334.8 159.5,314.3 152.6,310.4 134.8,320.6 123.9,314.4 152.5,297.8 181.2,314.4 145.6,334.8 
		163.4,345.1 152.5,351.3 	"/>
	<g>
		<polygon class="st9" points="152.5,351.3 163.4,345.1 145.6,334.8 181.2,314.4 181.2,347.4 152.5,363.9 		"/>
		<polygon class="st9" points="134.8,320.6 134.8,328.5 152.6,318.3 152.6,310.4 		"/>
	</g>
	<g>
		<polygon class="st10" points="152.6,310.4 152.6,318.3 159.5,314.3 		"/>
		<polygon class="st10" points="123.9,334.8 152.5,351.3 152.5,363.9 123.9,347.4 		"/>
		<polygon class="st10" points="123.9,314.4 134.8,320.6 134.8,328.5 123.9,334.8 		"/>
	</g>
</g>
<g>
	<polygon class="st0" points="123.9,400.9 159.5,380.4 152.6,376.5 134.8,386.7 123.9,380.4 152.5,363.9 181.2,380.4 145.6,400.9 
		163.4,411.1 152.5,417.4 	"/>
	<g>
		<polygon class="st11" points="152.5,417.4 163.4,411.1 145.6,400.9 181.2,380.4 181.2,413.5 152.5,430 		"/>
		<polygon class="st11" points="134.8,386.7 134.8,394.6 152.6,384.4 152.6,376.5 		"/>
	</g>
	<g>
		<polygon class="st12" points="152.6,376.5 152.6,384.4 159.5,380.4 		"/>
		<polygon class="st12" points="123.9,400.9 152.5,417.4 152.5,430 123.9,413.5 		"/>
		<polygon class="st12" points="123.9,380.4 134.8,386.7 134.8,394.6 123.9,400.9 		"/>
	</g>
</g>
<g>
	<polygon class="st0" points="123.9,467 159.5,446.5 152.6,442.5 134.8,452.8 123.9,446.5 152.5,430 181.2,446.5 145.6,467 
		163.4,477.2 152.5,483.5 	"/>
	<g>
		<polygon class="st13" points="152.5,483.5 163.4,477.2 145.6,467 181.2,446.5 181.2,479.6 152.5,496.1 		"/>
		<polygon class="st13" points="134.8,452.8 134.8,460.7 152.6,450.5 152.6,442.5 		"/>
	</g>
	<g>
		<polygon class="st14" points="152.6,442.5 152.6,450.5 159.5,446.5 		"/>
		<polygon class="st14" points="123.9,467 152.5,483.5 152.5,496.1 123.9,479.6 		"/>
		<polygon class="st14" points="123.9,446.5 134.8,452.8 134.8,460.7 123.9,467 		"/>
	</g>
</g>
<g>
	<polygon class="st0" points="123.9,533.1 159.5,512.6 152.6,508.6 134.8,518.9 123.9,512.6 152.5,496.1 181.2,512.6 145.6,533.1 
		163.4,543.3 152.5,549.6 	"/>
	<g>
		<polygon class="st15" points="152.5,549.6 163.4,543.3 145.6,533.1 181.2,512.6 181.2,545.6 152.5,562.2 		"/>
		<polygon class="st15" points="134.8,518.9 134.8,526.8 152.6,516.6 152.6,508.6 		"/>
	</g>
	<g>
		<polygon class="st16" points="152.6,508.6 152.6,516.6 159.5,512.6 		"/>
		<polygon class="st16" points="123.9,533.1 152.5,549.6 152.5,562.2 123.9,545.6 		"/>
		<polygon class="st16" points="123.9,512.6 134.8,518.9 134.8,526.8 123.9,533.1 		"/>
	</g>
</g>
<g>
	<polygon class="st0" points="181.2,70.5 216.7,50 209.8,46 192,56.3 181.2,50 209.8,33.5 238.4,50 202.9,70.5 220.6,80.7 209.8,87 
			"/>
	<g>
		<polygon class="st1" points="209.8,87 220.6,80.7 202.9,70.5 238.4,50 238.4,83.1 209.8,99.6 		"/>
		<polygon class="st1" points="192,56.3 192,64.2 209.8,54 209.8,46 		"/>
	</g>
	<g>
		<polygon class="st2" points="209.8,46 209.8,54 216.7,50 		"/>
		<polygon class="st2" points="181.2,70.5 209.8,87 209.8,99.6 181.2,83.1 		"/>
		<polygon class="st2" points="181.2,50 192,56.3 192,64.2 181.2,70.5 		"/>
	</g>
</g>
<g>
	<polygon class="st0" points="181.2,136.6 216.7,116.1 209.8,112.1 192,122.4 181.2,116.1 209.8,99.6 238.4,116.1 202.9,136.6 
		220.6,146.8 209.8,153.1 	"/>
	<g>
		<polygon class="st3" points="209.8,153.1 220.6,146.8 202.9,136.6 238.4,116.1 238.4,149.1 209.8,165.7 		"/>
		<polygon class="st3" points="192,122.4 192,130.3 209.8,120.1 209.8,112.1 		"/>
	</g>
	<g>
		<polygon class="st4" points="209.8,112.1 209.8,120.1 216.7,116.1 		"/>
		<polygon class="st4" points="181.2,136.6 209.8,153.1 209.8,165.7 181.2,149.1 		"/>
		<polygon class="st4" points="181.2,116.1 192,122.4 192,130.3 181.2,136.6 		"/>
	</g>
</g>
<g>
	<polygon class="st0" points="181.2,202.6 216.7,182.2 209.8,178.2 192,188.5 181.2,182.2 209.8,165.7 238.4,182.2 202.9,202.7 
		220.6,212.9 209.8,219.2 	"/>
	<g>
		<polygon class="st5" points="209.8,219.2 220.6,212.9 202.9,202.7 238.4,182.2 238.4,215.2 209.8,231.7 		"/>
		<polygon class="st5" points="192,188.5 192,196.4 209.8,186.1 209.8,178.2 		"/>
	</g>
	<g>
		<polygon class="st6" points="209.8,178.2 209.8,186.1 216.7,182.2 		"/>
		<polygon class="st6" points="181.2,202.6 209.8,219.2 209.8,231.7 181.2,215.2 		"/>
		<polygon class="st6" points="181.2,182.2 192,188.5 192,196.4 181.2,202.6 		"/>
	</g>
</g>
<g>
	<polygon class="st0" points="181.2,268.7 216.7,248.3 209.8,244.3 192,254.5 181.2,248.3 209.8,231.7 238.4,248.3 202.9,268.7 
		220.6,279 209.8,285.2 	"/>
	<g>
		<polygon class="st7" points="209.8,285.2 220.6,279 202.9,268.7 238.4,248.3 238.4,281.3 209.8,297.8 		"/>
		<polygon class="st7" points="192,254.5 192,262.5 209.8,252.2 209.8,244.3 		"/>
	</g>
	<g>
		<polygon class="st8" points="209.8,244.3 209.8,252.2 216.7,248.3 		"/>
		<polygon class="st8" points="181.2,268.7 209.8,285.2 209.8,297.8 181.2,281.3 		"/>
		<polygon class="st8" points="181.2,248.3 192,254.5 192,262.5 181.2,268.7 		"/>
	</g>
</g>
<g>
	<polygon class="st0" points="181.2,334.8 216.7,314.3 209.8,310.4 192,320.6 181.2,314.4 209.8,297.8 238.4,314.4 202.9,334.8 
		220.6,345.1 209.8,351.3 	"/>
	<g>
		<polygon class="st9" points="209.8,351.3 220.6,345.1 202.9,334.8 238.4,314.4 238.4,347.4 209.8,363.9 		"/>
		<polygon class="st9" points="192,320.6 192,328.5 209.8,318.3 209.8,310.4 		"/>
	</g>
	<g>
		<polygon class="st10" points="209.8,310.4 209.8,318.3 216.7,314.3 		"/>
		<polygon class="st10" points="181.2,334.8 209.8,351.3 209.8,363.9 181.2,347.4 		"/>
		<polygon class="st10" points="181.2,314.4 192,320.6 192,328.5 181.2,334.8 		"/>
	</g>
</g>
<g>
	<polygon class="st0" points="181.2,400.9 216.7,380.4 209.8,376.5 192,386.7 181.2,380.4 209.8,363.9 238.4,380.4 202.9,400.9 
		220.6,411.1 209.8,417.4 	"/>
	<g>
		<polygon class="st11" points="209.8,417.4 220.6,411.1 202.9,400.9 238.4,380.4 238.4,413.5 209.8,430 		"/>
		<polygon class="st11" points="192,386.7 192,394.6 209.8,384.4 209.8,376.5 		"/>
	</g>
	<g>
		<polygon class="st12" points="209.8,376.5 209.8,384.4 216.7,380.4 		"/>
		<polygon class="st12" points="181.2,400.9 209.8,417.4 209.8,430 181.2,413.5 		"/>
		<polygon class="st12" points="181.2,380.4 192,386.7 192,394.6 181.2,400.9 		"/>
	</g>
</g>
<g>
	<polygon class="st0" points="181.2,467 216.7,446.5 209.8,442.5 192,452.8 181.2,446.5 209.8,430 238.4,446.5 202.9,467 
		220.6,477.2 209.8,483.5 	"/>
	<g>
		<polygon class="st13" points="209.8,483.5 220.6,477.2 202.9,467 238.4,446.5 238.4,479.6 209.8,496.1 		"/>
		<polygon class="st13" points="192,452.8 192,460.7 209.8,450.5 209.8,442.5 		"/>
	</g>
	<g>
		<polygon class="st14" points="209.8,442.5 209.8,450.5 216.7,446.5 		"/>
		<polygon class="st14" points="181.2,467 209.8,483.5 209.8,496.1 181.2,479.6 		"/>
		<polygon class="st14" points="181.2,446.5 192,452.8 192,460.7 181.2,467 		"/>
	</g>
</g>
<g>
	<polygon class="st0" points="181.2,533.1 216.7,512.6 209.8,508.6 192,518.9 181.2,512.6 209.8,496.1 238.4,512.6 202.9,533.1 
		220.6,543.3 209.8,549.6 	"/>
	<g>
		<polygon class="st15" points="209.8,549.6 220.6,543.3 202.9,533.1 238.4,512.6 238.4,545.6 209.8,562.2 		"/>
		<polygon class="st15" points="192,518.9 192,526.8 209.8,516.6 209.8,508.6 		"/>
	</g>
	<g>
		<polygon class="st16" points="209.8,508.6 209.8,516.6 216.7,512.6 		"/>
		<polygon class="st16" points="181.2,533.1 209.8,549.6 209.8,562.2 181.2,545.6 		"/>
		<polygon class="st16" points="181.2,512.6 192,518.9 192,526.8 181.2,533.1 		"/>
	</g>
</g>
<g>
	<polygon class="st0" points="238.4,70.5 273.9,50 267,46 249.3,56.3 238.4,50 267,33.5 295.6,50 260.1,70.5 277.8,80.7 267,87 	"/>
	<g>
		<polygon class="st1" points="267,87 277.8,80.7 260.1,70.5 295.6,50 295.6,83.1 267,99.6 		"/>
		<polygon class="st1" points="249.3,56.3 249.3,64.2 267,54 267,46 		"/>
	</g>
	<g>
		<polygon class="st2" points="267,46 267,54 273.9,50 		"/>
		<polygon class="st2" points="238.4,70.5 267,87 267,99.6 238.4,83.1 		"/>
		<polygon class="st2" points="238.4,50 249.3,56.3 249.3,64.2 238.4,70.5 		"/>
	</g>
</g>
<g>
	<polygon class="st0" points="238.4,136.6 273.9,116.1 267,112.1 249.3,122.4 238.4,116.1 267,99.6 295.6,116.1 260.1,136.6 
		277.8,146.8 267,153.1 	"/>
	<g>
		<polygon class="st3" points="267,153.1 277.8,146.8 260.1,136.6 295.6,116.1 295.6,149.1 267,165.7 		"/>
		<polygon class="st3" points="249.3,122.4 249.3,130.3 267,120.1 267,112.1 		"/>
	</g>
	<g>
		<polygon class="st4" points="267,112.1 267,120.1 273.9,116.1 		"/>
		<polygon class="st4" points="238.4,136.6 267,153.1 267,165.7 238.4,149.1 		"/>
		<polygon class="st4" points="238.4,116.1 249.3,122.4 249.3,130.3 238.4,136.6 		"/>
	</g>
</g>
<g>
	<polygon class="st0" points="238.4,202.6 273.9,182.2 267,178.2 249.3,188.5 238.4,182.2 267,165.7 295.6,182.2 260.1,202.7 
		277.8,212.9 267,219.2 	"/>
	<g>
		<polygon class="st5" points="267,219.2 277.8,212.9 260.1,202.7 295.6,182.2 295.6,215.2 267,231.7 		"/>
		<polygon class="st5" points="249.3,188.5 249.3,196.4 267,186.1 267,178.2 		"/>
	</g>
	<g>
		<polygon class="st6" points="267,178.2 267,186.1 273.9,182.2 		"/>
		<polygon class="st6" points="238.4,202.6 267,219.2 267,231.7 238.4,215.2 		"/>
		<polygon class="st6" points="238.4,182.2 249.3,188.5 249.3,196.4 238.4,202.6 		"/>
	</g>
</g>
<g>
	<polygon class="st0" points="238.4,268.7 273.9,248.3 267,244.3 249.3,254.5 238.4,248.3 267,231.7 295.6,248.3 260.1,268.7 
		277.8,279 267,285.2 	"/>
	<g>
		<polygon class="st7" points="267,285.2 277.8,279 260.1,268.7 295.6,248.3 295.6,281.3 267,297.8 		"/>
		<polygon class="st7" points="249.3,254.5 249.3,262.5 267,252.2 267,244.3 		"/>
	</g>
	<g>
		<polygon class="st8" points="267,244.3 267,252.2 273.9,248.3 		"/>
		<polygon class="st8" points="238.4,268.7 267,285.2 267,297.8 238.4,281.3 		"/>
		<polygon class="st8" points="238.4,248.3 249.3,254.5 249.3,262.5 238.4,268.7 		"/>
	</g>
</g>
<g>
	<polygon class="st0" points="238.4,334.8 273.9,314.3 267,310.4 249.3,320.6 238.4,314.4 267,297.8 295.6,314.4 260.1,334.8 
		277.8,345.1 267,351.3 	"/>
	<g>
		<polygon class="st9" points="267,351.3 277.8,345.1 260.1,334.8 295.6,314.4 295.6,347.4 267,363.9 		"/>
		<polygon class="st9" points="249.3,320.6 249.3,328.5 267,318.3 267,310.4 		"/>
	</g>
	<g>
		<polygon class="st10" points="267,310.4 267,318.3 273.9,314.3 		"/>
		<polygon class="st10" points="238.4,334.8 267,351.3 267,363.9 238.4,347.4 		"/>
		<polygon class="st10" points="238.4,314.4 249.3,320.6 249.3,328.5 238.4,334.8 		"/>
	</g>
</g>
<g>
	<polygon class="st0" points="238.4,400.9 273.9,380.4 267,376.5 249.3,386.7 238.4,380.4 267,363.9 295.6,380.4 260.1,400.9 
		277.8,411.1 267,417.4 	"/>
	<g>
		<polygon class="st11" points="267,417.4 277.8,411.1 260.1,400.9 295.6,380.4 295.6,413.5 267,430 		"/>
		<polygon class="st11" points="249.3,386.7 249.3,394.6 267,384.4 267,376.5 		"/>
	</g>
	<g>
		<polygon class="st12" points="267,376.5 267,384.4 273.9,380.4 		"/>
		<polygon class="st12" points="238.4,400.9 267,417.4 267,430 238.4,413.5 		"/>
		<polygon class="st12" points="238.4,380.4 249.3,386.7 249.3,394.6 238.4,400.9 		"/>
	</g>
</g>
<g>
	<polygon class="st0" points="238.4,467 273.9,446.5 267,442.5 249.3,452.8 238.4,446.5 267,430 295.6,446.5 260.1,467 277.8,477.2 
		267,483.5 	"/>
	<g>
		<polygon class="st13" points="267,483.5 277.8,477.2 260.1,467 295.6,446.5 295.6,479.6 267,496.1 		"/>
		<polygon class="st13" points="249.3,452.8 249.3,460.7 267,450.5 267,442.5 		"/>
	</g>
	<g>
		<polygon class="st14" points="267,442.5 267,450.5 273.9,446.5 		"/>
		<polygon class="st14" points="238.4,467 267,483.5 267,496.1 238.4,479.6 		"/>
		<polygon class="st14" points="238.4,446.5 249.3,452.8 249.3,460.7 238.4,467 		"/>
	</g>
</g>
<g>
	<polygon class="st0" points="238.4,533.1 273.9,512.6 267,508.6 249.3,518.9 238.4,512.6 267,496.1 295.6,512.6 260.1,533.1 
		277.8,543.3 267,549.6 	"/>
	<g>
		<polygon class="st15" points="267,549.6 277.8,543.3 260.1,533.1 295.6,512.6 295.6,545.6 267,562.2 		"/>
		<polygon class="st15" points="249.3,518.9 249.3,526.8 267,516.6 267,508.6 		"/>
	</g>
	<g>
		<polygon class="st16" points="267,508.6 267,516.6 273.9,512.6 		"/>
		<polygon class="st16" points="238.4,533.1 267,549.6 267,562.2 238.4,545.6 		"/>
		<polygon class="st16" points="238.4,512.6 249.3,518.9 249.3,526.8 238.4,533.1 		"/>
	</g>
</g>
<g>
	<polygon class="st0" points="295.6,70.5 331.1,50 324.2,46 306.5,56.3 295.6,50 324.2,33.5 352.8,50 317.3,70.5 335,80.7 324.2,87 
			"/>
	<g>
		<polygon class="st1" points="324.2,87 335,80.7 317.3,70.5 352.8,50 352.8,83.1 324.2,99.6 		"/>
		<polygon class="st1" points="306.5,56.3 306.5,64.2 324.2,54 324.2,46 		"/>
	</g>
	<g>
		<polygon class="st2" points="324.2,46 324.2,54 331.1,50 		"/>
		<polygon class="st2" points="295.6,70.5 324.2,87 324.2,99.6 295.6,83.1 		"/>
		<polygon class="st2" points="295.6,50 306.5,56.3 306.5,64.2 295.6,70.5 		"/>
	</g>
</g>
<g>
	<polygon class="st0" points="295.6,136.6 331.1,116.1 324.2,112.1 306.5,122.4 295.6,116.1 324.2,99.6 352.8,116.1 317.3,136.6 
		335,146.8 324.2,153.1 	"/>
	<g>
		<polygon class="st3" points="324.2,153.1 335,146.8 317.3,136.6 352.8,116.1 352.8,149.1 324.2,165.7 		"/>
		<polygon class="st3" points="306.5,122.4 306.5,130.3 324.2,120.1 324.2,112.1 		"/>
	</g>
	<g>
		<polygon class="st4" points="324.2,112.1 324.2,120.1 331.1,116.1 		"/>
		<polygon class="st4" points="295.6,136.6 324.2,153.1 324.2,165.7 295.6,149.1 		"/>
		<polygon class="st4" points="295.6,116.1 306.5,122.4 306.5,130.3 295.6,136.6 		"/>
	</g>
</g>
<g>
	<polygon class="st0" points="295.6,202.6 331.1,182.2 324.2,178.2 306.5,188.5 295.6,182.2 324.2,165.7 352.8,182.2 317.3,202.7 
		335,212.9 324.2,219.2 	"/>
	<g>
		<polygon class="st5" points="324.2,219.2 335,212.9 317.3,202.7 352.8,182.2 352.8,215.2 324.2,231.7 		"/>
		<polygon class="st5" points="306.5,188.5 306.5,196.4 324.2,186.1 324.2,178.2 		"/>
	</g>
	<g>
		<polygon class="st6" points="324.2,178.2 324.2,186.1 331.1,182.2 		"/>
		<polygon class="st6" points="295.6,202.6 324.2,219.2 324.2,231.7 295.6,215.2 		"/>
		<polygon class="st6" points="295.6,182.2 306.5,188.5 306.5,196.4 295.6,202.6 		"/>
	</g>
</g>
<g>
	<polygon class="st0" points="295.6,268.7 331.1,248.3 324.2,244.3 306.5,254.5 295.6,248.3 324.2,231.7 352.8,248.3 317.3,268.7 
		335,279 324.2,285.2 	"/>
	<g>
		<polygon class="st7" points="324.2,285.2 335,279 317.3,268.7 352.8,248.3 352.8,281.3 324.2,297.8 		"/>
		<polygon class="st7" points="306.5,254.5 306.5,262.5 324.2,252.2 324.2,244.3 		"/>
	</g>
	<g>
		<polygon class="st8" points="324.2,244.3 324.2,252.2 331.1,248.3 		"/>
		<polygon class="st8" points="295.6,268.7 324.2,285.2 324.2,297.8 295.6,281.3 		"/>
		<polygon class="st8" points="295.6,248.3 306.5,254.5 306.5,262.5 295.6,268.7 		"/>
	</g>
</g>
<g>
	<polygon class="st0" points="295.6,334.8 331.1,314.3 324.2,310.4 306.5,320.6 295.6,314.4 324.2,297.8 352.8,314.4 317.3,334.8 
		335,345.1 324.2,351.3 	"/>
	<g>
		<polygon class="st9" points="324.2,351.3 335,345.1 317.3,334.8 352.8,314.4 352.8,347.4 324.2,363.9 		"/>
		<polygon class="st9" points="306.5,320.6 306.5,328.5 324.2,318.3 324.2,310.4 		"/>
	</g>
	<g>
		<polygon class="st10" points="324.2,310.4 324.2,318.3 331.1,314.3 		"/>
		<polygon class="st10" points="295.6,334.8 324.2,351.3 324.2,363.9 295.6,347.4 		"/>
		<polygon class="st10" points="295.6,314.4 306.5,320.6 306.5,328.5 295.6,334.8 		"/>
	</g>
</g>
<g>
	<polygon class="st0" points="295.6,400.9 331.1,380.4 324.2,376.5 306.5,386.7 295.6,380.4 324.2,363.9 352.8,380.4 317.3,400.9 
		335,411.1 324.2,417.4 	"/>
	<g>
		<polygon class="st11" points="324.2,417.4 335,411.1 317.3,400.9 352.8,380.4 352.8,413.5 324.2,430 		"/>
		<polygon class="st11" points="306.5,386.7 306.5,394.6 324.2,384.4 324.2,376.5 		"/>
	</g>
	<g>
		<polygon class="st12" points="324.2,376.5 324.2,384.4 331.1,380.4 		"/>
		<polygon class="st12" points="295.6,400.9 324.2,417.4 324.2,430 295.6,413.5 		"/>
		<polygon class="st12" points="295.6,380.4 306.5,386.7 306.5,394.6 295.6,400.9 		"/>
	</g>
</g>
<g>
	<polygon class="st0" points="295.6,467 331.1,446.5 324.2,442.5 306.5,452.8 295.6,446.5 324.2,430 352.8,446.5 317.3,467 
		335,477.2 324.2,483.5 	"/>
	<g>
		<polygon class="st13" points="324.2,483.5 335,477.2 317.3,467 352.8,446.5 352.8,479.6 324.2,496.1 		"/>
		<polygon class="st13" points="306.5,452.8 306.5,460.7 324.2,450.5 324.2,442.5 		"/>
	</g>
	<g>
		<polygon class="st14" points="324.2,442.5 324.2,450.5 331.1,446.5 		"/>
		<polygon class="st14" points="295.6,467 324.2,483.5 324.2,496.1 295.6,479.6 		"/>
		<polygon class="st14" points="295.6,446.5 306.5,452.8 306.5,460.7 295.6,467 		"/>
	</g>
</g>
<g>
	<polygon class="st0" points="295.6,533.1 331.1,512.6 324.2,508.6 306.5,518.9 295.6,512.6 324.2,496.1 352.8,512.6 317.3,533.1 
		335,543.3 324.2,549.6 	"/>
	<g>
		<polygon class="st15" points="324.2,549.6 335,543.3 317.3,533.1 352.8,512.6 352.8,545.6 324.2,562.2 		"/>
		<polygon class="st15" points="306.5,518.9 306.5,526.8 324.2,516.6 324.2,508.6 		"/>
	</g>
	<g>
		<polygon class="st16" points="324.2,508.6 324.2,516.6 331.1,512.6 		"/>
		<polygon class="st16" points="295.6,533.1 324.2,549.6 324.2,562.2 295.6,545.6 		"/>
		<polygon class="st16" points="295.6,512.6 306.5,518.9 306.5,526.8 295.6,533.1 		"/>
	</g>
</g>
<g>
	<polygon class="st0" points="352.8,70.5 388.3,50 381.5,46 363.7,56.3 352.8,50 381.4,33.5 410,50 374.5,70.5 392.3,80.7 381.4,87 
			"/>
	<g>
		<polygon class="st1" points="381.4,87 392.3,80.7 374.5,70.5 410,50 410,83.1 381.4,99.6 		"/>
		<polygon class="st1" points="363.7,56.3 363.7,64.2 381.5,54 381.5,46 		"/>
	</g>
	<g>
		<polygon class="st2" points="381.5,46 381.5,54 388.3,50 		"/>
		<polygon class="st2" points="352.8,70.5 381.4,87 381.4,99.6 352.8,83.1 		"/>
		<polygon class="st2" points="352.8,50 363.7,56.3 363.7,64.2 352.8,70.5 		"/>
	</g>
</g>
<g>
	<polygon class="st0" points="352.8,136.6 388.3,116.1 381.5,112.1 363.7,122.4 352.8,116.1 381.4,99.6 410,116.1 374.5,136.6 
		392.3,146.8 381.4,153.1 	"/>
	<g>
		<polygon class="st3" points="381.4,153.1 392.3,146.8 374.5,136.6 410,116.1 410,149.1 381.4,165.7 		"/>
		<polygon class="st3" points="363.7,122.4 363.7,130.3 381.5,120.1 381.5,112.1 		"/>
	</g>
	<g>
		<polygon class="st4" points="381.5,112.1 381.5,120.1 388.3,116.1 		"/>
		<polygon class="st4" points="352.8,136.6 381.4,153.1 381.4,165.7 352.8,149.1 		"/>
		<polygon class="st4" points="352.8,116.1 363.7,122.4 363.7,130.3 352.8,136.6 		"/>
	</g>
</g>
<g>
	<polygon class="st0" points="352.8,202.6 388.3,182.2 381.5,178.2 363.7,188.5 352.8,182.2 381.4,165.7 410,182.2 374.5,202.7 
		392.3,212.9 381.4,219.2 	"/>
	<g>
		<polygon class="st5" points="381.4,219.2 392.3,212.9 374.5,202.7 410,182.2 410,215.2 381.4,231.7 		"/>
		<polygon class="st5" points="363.7,188.5 363.7,196.4 381.5,186.1 381.5,178.2 		"/>
	</g>
	<g>
		<polygon class="st6" points="381.5,178.2 381.5,186.1 388.3,182.2 		"/>
		<polygon class="st6" points="352.8,202.6 381.4,219.2 381.4,231.7 352.8,215.2 		"/>
		<polygon class="st6" points="352.8,182.2 363.7,188.5 363.7,196.4 352.8,202.6 		"/>
	</g>
</g>
<g>
	<polygon class="st0" points="352.8,268.7 388.3,248.3 381.5,244.3 363.7,254.5 352.8,248.3 381.4,231.7 410,248.3 374.5,268.7 
		392.3,279 381.4,285.2 	"/>
	<g>
		<polygon class="st7" points="381.4,285.2 392.3,279 374.5,268.7 410,248.3 410,281.3 381.4,297.8 		"/>
		<polygon class="st7" points="363.7,254.5 363.7,262.5 381.5,252.2 381.5,244.3 		"/>
	</g>
	<g>
		<polygon class="st8" points="381.5,244.3 381.5,252.2 388.3,248.3 		"/>
		<polygon class="st8" points="352.8,268.7 381.4,285.2 381.4,297.8 352.8,281.3 		"/>
		<polygon class="st8" points="352.8,248.3 363.7,254.5 363.7,262.5 352.8,268.7 		"/>
	</g>
</g>
<g>
	<polygon class="st0" points="352.8,334.8 388.3,314.3 381.5,310.4 363.7,320.6 352.8,314.4 381.4,297.8 410,314.4 374.5,334.8 
		392.3,345.1 381.4,351.3 	"/>
	<g>
		<polygon class="st9" points="381.4,351.3 392.3,345.1 374.5,334.8 410,314.4 410,347.4 381.4,363.9 		"/>
		<polygon class="st9" points="363.7,320.6 363.7,328.5 381.5,318.3 381.5,310.4 		"/>
	</g>
	<g>
		<polygon class="st10" points="381.5,310.4 381.5,318.3 388.3,314.3 		"/>
		<polygon class="st10" points="352.8,334.8 381.4,351.3 381.4,363.9 352.8,347.4 		"/>
		<polygon class="st10" points="352.8,314.4 363.7,320.6 363.7,328.5 352.8,334.8 		"/>
	</g>
</g>
<g>
	<polygon class="st0" points="352.8,400.9 388.3,380.4 381.5,376.5 363.7,386.7 352.8,380.4 381.4,363.9 410,380.4 374.5,400.9 
		392.3,411.1 381.4,417.4 	"/>
	<g>
		<polygon class="st11" points="381.4,417.4 392.3,411.1 374.5,400.9 410,380.4 410,413.5 381.4,430 		"/>
		<polygon class="st11" points="363.7,386.7 363.7,394.6 381.5,384.4 381.5,376.5 		"/>
	</g>
	<g>
		<polygon class="st12" points="381.5,376.5 381.5,384.4 388.3,380.4 		"/>
		<polygon class="st12" points="352.8,400.9 381.4,417.4 381.4,430 352.8,413.5 		"/>
		<polygon class="st12" points="352.8,380.4 363.7,386.7 363.7,394.6 352.8,400.9 		"/>
	</g>
</g>
<g>
	<polygon class="st0" points="352.8,467 388.3,446.5 381.5,442.5 363.7,452.8 352.8,446.5 381.4,430 410,446.5 374.5,467 
		392.3,477.2 381.4,483.5 	"/>
	<g>
		<polygon class="st13" points="381.4,483.5 392.3,477.2 374.5,467 410,446.5 410,479.6 381.4,496.1 		"/>
		<polygon class="st13" points="363.7,452.8 363.7,460.7 381.5,450.5 381.5,442.5 		"/>
	</g>
	<g>
		<polygon class="st14" points="381.5,442.5 381.5,450.5 388.3,446.5 		"/>
		<polygon class="st14" points="352.8,467 381.4,483.5 381.4,496.1 352.8,479.6 		"/>
		<polygon class="st14" points="352.8,446.5 363.7,452.8 363.7,460.7 352.8,467 		"/>
	</g>
</g>
<g>
	<polygon class="st0" points="352.8,533.1 388.3,512.6 381.5,508.6 363.7,518.9 352.8,512.6 381.4,496.1 410,512.6 374.5,533.1 
		392.3,543.3 381.4,549.6 	"/>
	<g>
		<polygon class="st15" points="381.4,549.6 392.3,543.3 374.5,533.1 410,512.6 410,545.6 381.4,562.2 		"/>
		<polygon class="st15" points="363.7,518.9 363.7,526.8 381.5,516.6 381.5,508.6 		"/>
	</g>
	<g>
		<polygon class="st16" points="381.5,508.6 381.5,516.6 388.3,512.6 		"/>
		<polygon class="st16" points="352.8,533.1 381.4,549.6 381.4,562.2 352.8,545.6 		"/>
		<polygon class="st16" points="352.8,512.6 363.7,518.9 363.7,526.8 352.8,533.1 		"/>
	</g>
</g>
<rect x="22.7" y="33.5" class="st0" width="374.1" height="528.7"/>
</svg>
