<svg xmlns="http://www.w3.org/2000/svg" viewBox="0 0 477.1 488.16"><polygon points="68.91 83.06 68.91 92.72 77.29 87.9 68.91 83.06" fill="#d61f69"/><polygon points="0 175.94 0 185.6 8.37 180.77 0 175.94" fill="#d61f69"/><polygon points="213.95 51.26 213.95 60.92 222.33 56.09 213.95 51.26" fill="#d61f69"/><polygon points="198.25 210.92 198.25 220.57 206.62 215.75 198.25 210.92" fill="#d61f69"/><polygon points="329.12 398.11 329.12 407.76 337.49 402.94 329.12 398.11" fill="#d61f69"/><polygon points="273.81 207.47 273.81 217.13 282.18 212.31 273.81 207.47" fill="#d61f69"/><polygon points="371.3 134.18 371.3 143.83 379.67 139.01 371.3 134.18" fill="#d61f69"/><polygon points="321.63 16.12 321.63 25.78 330 20.95 321.63 16.12" fill="#d61f69"/><polygon points="462.34 7.61 462.34 17.27 470.72 12.45 462.34 7.61" fill="#d61f69"/><polygon points="0 42.58 13.23 50.22 13.23 59.84 0 67.46 0 42.58" fill="#d61f69"/><polygon points="76.7 168.33 89.93 175.96 89.93 185.59 76.7 193.21 76.7 168.33" fill="#d61f69"/><polygon points="174.23 26.38 187.46 34.02 187.46 43.64 174.23 51.26 174.23 26.38" fill="#d61f69"/><polygon points="337.01 210.92 350.25 218.55 350.25 228.18 337.01 235.8 337.01 210.92" fill="#d61f69"/><polygon points="266.47 396.82 279.7 404.46 279.7 414.08 266.47 421.7 266.47 396.82" fill="#d61f69"/><polygon points="405.53 166.56 418.76 174.19 418.76 183.82 405.53 191.44 405.53 166.56" fill="#d61f69"/><polygon points="123.08 128.92 136.31 136.56 136.31 146.18 123.08 153.8 123.08 128.92" fill="#d61f69"/><polygon points="254.42 0 267.65 7.63 267.65 17.26 254.42 24.88 254.42 0" fill="#d61f69"/><polygon points="438.89 38.82 452.12 46.45 452.12 56.08 438.89 63.7 438.89 38.82" fill="#d61f69"/><polygon points="28.32 24.92 28.32 34.55 49.94 22.1 49.94 12.44 28.32 24.92" fill="#1c64f2"/><polygon points="81.06 229.61 81.06 239.24 102.68 226.79 102.68 217.13 81.06 229.61" fill="#1c64f2"/><polygon points="133.88 17.55 133.88 27.17 155.49 14.72 155.49 5.07 133.88 17.55" fill="#1c64f2"/><polygon points="158.35 184.81 158.35 194.43 179.97 181.99 179.97 172.33 158.35 184.81" fill="#1c64f2"/><polygon points="291.79 423.84 291.79 433.47 313.4 421.02 313.4 411.36 291.79 423.84" fill="#1c64f2"/><polygon points="319.19 149.72 319.19 159.34 340.81 146.9 340.81 137.24 319.19 149.72" fill="#1c64f2"/><polygon points="421.71 150.06 421.71 159.68 443.32 147.24 443.32 137.58 421.71 150.06" fill="#1c64f2"/><polygon points="261.03 71.03 261.03 81.42 279.8 67.98 279.8 57.55 261.03 71.03" fill="#1c64f2"/><polygon points="375.48 106.19 375.48 116.59 394.25 103.15 394.25 92.72 375.48 106.19" fill="#1c64f2"/><polygon points="17.07 80.36 51.88 100.45 51.88 115.76 17.07 95.67 17.07 80.36" fill="#d61f69"/><polygon points="72.53 128.92 107.34 149.01 107.33 164.32 72.53 144.23 72.53 128.92" fill="#d61f69"/><polygon points="180.84 80.36 215.65 100.45 215.65 115.76 180.84 95.67 180.84 80.36" fill="#d61f69"/><polygon points="131.49 199.43 166.29 219.52 166.29 234.83 131.49 214.74 131.49 199.43" fill="#d61f69"/><polygon points="273.81 128.92 308.62 149.01 308.61 164.32 273.81 144.23 273.81 128.92" fill="#d61f69"/><polygon points="367.46 179 402.27 199.09 402.27 214.4 367.46 194.31 367.46 179" fill="#d61f69"/><polygon points="273.09 440.32 307.89 460.41 307.89 475.73 273.09 455.63 273.09 440.32" fill="#d61f69"/><polygon points="273.81 24.88 308.62 44.97 308.61 60.28 273.81 40.19 273.81 24.88" fill="#d61f69"/><polygon points="442.29 80.36 477.1 100.45 477.09 115.76 442.29 95.67 442.29 80.36" fill="#d61f69"/><polygon points="70.12 57.41 83.3 49.79 61.71 37.33 104.93 12.44 104.93 52.63 70.12 72.72 70.12 57.41" fill="#1c64f2"/><polygon points="131.49 99.99 144.66 92.37 123.08 79.91 166.29 55.02 166.29 95.21 131.49 115.31 131.49 99.99" fill="#1c64f2"/><polygon points="200.76 170.02 213.93 162.4 192.34 149.93 235.56 125.05 235.56 165.24 200.75 185.33 200.76 170.02" fill="#1c64f2"/><polygon points="292.62 220.21 305.79 212.58 284.21 200.12 327.42 175.23 327.42 215.42 292.62 235.52 292.62 220.21" fill="#1c64f2"/><polygon points="442.29 227.13 455.47 219.51 433.88 207.05 477.1 182.16 477.1 222.35 442.29 242.44 442.29 227.13" fill="#1c64f2"/><polygon points="36.74 204.66 49.91 197.03 28.33 184.57 71.54 159.68 71.54 199.87 36.74 219.97 36.74 204.66" fill="#1c64f2"/><polygon points="304.67 95.19 317.85 87.56 296.26 75.1 339.47 50.21 339.47 90.4 304.67 110.5 304.67 95.19" fill="#1c64f2"/><polygon points="374.41 48.39 387.58 40.76 365.99 28.3 409.21 3.42 409.21 43.6 374.4 63.7 374.41 48.39" fill="#1c64f2"/><polygon points="438.9 460.64 453.36 452.28 429.66 438.6 477.1 411.29 477.1 455.4 438.89 477.45 438.9 460.64" fill="#1c64f2"/><polygon points="415.21 419.67 415.21 430.23 438.94 416.57 438.94 405.97 415.21 419.67" fill="#1c64f2"/><polygon points="438.94 405.97 438.94 416.57 448.13 411.27 438.94 405.97" fill="#d61f69"/><polygon points="400.69 438.59 438.9 460.64 438.89 477.45 400.69 455.4 400.69 438.59" fill="#d61f69"/><polygon points="400.69 411.29 415.21 419.67 415.21 430.23 400.69 438.59 400.69 411.29" fill="#d61f69"/><polygon points="321.36 459.2 334.53 451.57 312.95 439.11 356.16 414.23 356.16 454.42 321.36 474.51 321.36 459.2" fill="#1c64f2"/><polygon points="200.41 398.11 200.41 407.76 208.78 402.94 200.41 398.11" fill="#d61f69"/><polygon points="149.33 384.38 162.56 392.02 162.56 401.64 149.33 409.26 149.33 384.38" fill="#d61f69"/><polygon points="163.08 423.84 163.08 433.47 184.7 421.02 184.7 411.36 163.08 423.84" fill="#1c64f2"/><polygon points="131.49 450.39 166.29 470.48 166.29 485.8 131.49 465.7 131.49 450.39" fill="#d61f69"/><polygon points="192.65 459.2 205.83 451.57 184.24 439.11 227.46 414.23 227.46 454.42 192.65 474.51 192.65 459.2" fill="#1c64f2"/><polygon points="61.03 422.41 61.03 432.07 69.41 427.25 61.03 422.41" fill="#d61f69"/><polygon points="49.94 376.1 63.17 383.74 63.17 393.36 49.94 400.98 49.94 376.1" fill="#d61f69"/><polygon points="0 426.37 0 435.99 21.62 423.54 21.62 413.89 0 426.37" fill="#1c64f2"/><polygon points="0 450.39 34.81 470.48 34.8 485.8 0 465.7 0 450.39" fill="#d61f69"/><polygon points="73.63 472.85 86.81 465.23 65.22 452.77 108.44 427.88 108.44 468.07 73.63 488.17 73.63 472.85" fill="#1c64f2"/><polygon points="422.32 336.13 422.32 345.78 430.69 340.96 422.32 336.13" fill="#d61f69"/><polygon points="419.34 251.41 432.57 259.05 432.57 268.67 419.34 276.29 419.34 251.41" fill="#d61f69"/><polygon points="394.73 308.87 394.73 318.5 416.34 306.05 416.34 296.39 394.73 308.87" fill="#1c64f2"/><polygon points="376.77 325.7 411.58 345.79 411.57 361.11 376.77 341.01 376.77 325.7" fill="#d61f69"/><polygon points="442.29 315.08 455.47 307.46 433.88 295 477.1 270.11 477.1 310.3 442.29 330.39 442.29 315.08" fill="#1c64f2"/><polygon points="287.6 302.62 287.6 312.27 295.98 307.45 287.6 302.62" fill="#d61f69"/><polygon points="259.86 276.29 273.09 283.93 273.09 293.55 259.86 301.17 259.86 276.29" fill="#d61f69"/><polygon points="260.26 336.75 260.26 346.38 281.88 333.93 281.88 324.27 260.26 336.75" fill="#1c64f2"/><polygon points="296 256.31 330.81 276.4 330.81 291.71 296 271.62 296 256.31" fill="#d61f69"/><polygon points="312.62 347.59 325.79 339.96 304.21 327.5 347.42 302.62 347.42 342.81 312.62 362.9 312.62 347.59" fill="#1c64f2"/><polygon points="154.16 275.15 154.16 284.81 162.54 279.99 154.16 275.15" fill="#d61f69"/><polygon points="130.44 255.1 143.68 262.74 143.68 272.36 130.44 279.98 130.44 255.1" fill="#d61f69"/><polygon points="195.04 342.38 195.04 352.01 216.66 339.56 216.66 329.9 195.04 342.38" fill="#1c64f2"/><polygon points="191.38 278.69 226.19 298.78 226.19 314.09 191.38 294 191.38 278.69" fill="#d61f69"/><polygon points="137.1 345.22 150.27 337.6 128.68 325.14 171.9 300.25 171.9 340.44 137.09 360.54 137.1 345.22" fill="#1c64f2"/><polygon points="69.97 277.94 69.97 287.59 78.34 282.77 69.97 277.94" fill="#d61f69"/><polygon points="54.42 306.06 67.65 313.69 67.65 323.32 54.42 330.94 54.42 306.06" fill="#d61f69"/><polygon points="74.16 342.38 74.16 352.01 95.77 339.56 95.77 329.9 74.16 342.38" fill="#1c64f2"/><polygon points="0 323.25 34.81 343.34 34.8 358.66 0 338.56 0 323.25" fill="#d61f69"/><polygon points="8.41 300.7 21.59 293.08 0 280.61 43.21 255.73 43.21 295.92 8.41 316.01 8.41 300.7" fill="#1c64f2"/></svg>